<svg xmlns:svg="http://www.w3.org/2000/svg" xmlns="http://www.w3.org/2000/svg" width="521.8" height="508.8" version="1.1"><g transform="translate(-124.82366,-237.97156)"><path d="M170.6 10C164 10 158.8 13.2 158.8 17.2L158.8 48 101 48C73.1 48 49.2 63.7 37.1 94.9 37.1 94.9 10 140.1 10 165.2L10 411.8C10 439.1 24.9 462.1 45.6 469.7 42.9 485.5 59.9 498.8 76.3 498.8L445.5 498.8C461.9 498.8 478.9 485.5 476.2 469.7 496.9 462.1 511.8 439.1 511.8 411.8L511.8 165.2C511.8 140.1 484.7 94.9 484.7 94.9 472.6 63.7 448.7 48 420.8 48L364.5 48 364.5 17.2C364.5 13.2 359.2 10 352.7 10L170.6 10zM178.6 18L344.7 18C351.2 18 356.5 21.2 356.5 25.2L356.5 101.3 166.8 101.3 166.8 25.2C166.8 21.2 172 18 178.6 18zM155.6 98L158.8 98 158.8 110 364.5 110 364.5 98 366.2 98C372.7 98 378 102.1 378 107.3 378 112.4 372.7 116.6 366.2 116.6L155.6 116.6C149 116.6 143.8 112.4 143.8 107.3 143.8 102.1 149 98 155.6 98zM152.8 171.7L482.8 171.7C495.7 171.7 506.2 182.2 506.2 195.2L506.2 313.7C506.2 326.7 495.7 337.2 482.8 337.2L152.8 337.2C139.8 337.2 129.3 326.7 129.3 313.7L129.3 195.2C129.3 182.2 139.8 171.7 152.8 171.7zM152.8 175.7C142 175.7 133.3 184.4 133.3 195.2L133.3 313.7C133.3 324.5 142 333.2 152.8 333.2L482.8 333.2C493.6 333.2 502.2 324.5 502.2 313.7L502.2 195.2C502.2 184.4 493.6 175.7 482.8 175.7L152.8 175.7zM413.1 193.3C446.8 193.3 474.2 220.7 474.2 254.4 474.2 288.2 446.8 315.6 413.1 315.6 379.3 315.6 351.9 288.2 351.9 254.4 351.9 220.7 379.3 193.3 413.1 193.3zM413.1 202.1C384.1 202.1 360.7 225.5 360.7 254.4 360.7 283.4 384.1 306.8 413.1 306.8 442 306.8 465.4 283.4 465.4 254.4 465.4 225.5 442 202.1 413.1 202.1zM435.3 230.9C439.5 230.9 440.6 233.9 439.1 238.4L422.4 286.1C420.8 290.7 414.7 291.2 412.4 286.5L404.4 270.3C403.4 268.1 401.5 266 399.8 265.2L384.3 257.8C378.2 254.8 380.1 249.3 384.7 247.7L430.1 231.9C432.2 231.2 433.9 230.9 435.3 230.9zM127.4 367.1L396.4 367.1C409.6 367.1 417.2 378.1 420.3 391L432.9 448C436 460.8 422.2 471.8 409 471.8L112.8 471.8C99.6 471.8 85.8 460.8 88.9 448L103.5 391C106.6 378.1 114.2 367.1 127.4 367.1zM151.9 374.8C143.8 374.8 137.2 379.9 137.2 386.3 137.2 392.6 143.8 397.8 151.9 397.8 160 397.8 166.6 392.6 166.6 386.3 166.6 379.9 160 374.8 151.9 374.8zM195.5 374.8C187.4 374.8 180.8 379.9 180.8 386.3 180.8 392.6 187.4 397.8 195.5 397.8 203.6 397.8 210.2 392.6 210.2 386.3 210.2 379.9 203.6 374.8 195.5 374.8zM239.1 374.8C231 374.8 224.4 379.9 224.4 386.3 224.4 392.6 231 397.8 239.1 397.8 247.2 397.8 253.8 392.6 253.8 386.3 253.8 379.9 247.2 374.8 239.1 374.8zM282.7 374.8C274.6 374.8 268 379.9 268 386.3 268 392.6 274.6 397.8 282.7 397.8 290.8 397.8 297.4 392.6 297.4 386.3 297.4 379.9 290.8 374.8 282.7 374.8zM326.3 374.8C318.2 374.8 311.6 379.9 311.6 386.3 311.6 392.6 318.2 397.8 326.3 397.8 334.4 397.8 341 392.6 341 386.3 341 379.9 334.4 374.8 326.3 374.8zM369.9 374.8C361.8 374.8 355.2 379.9 355.2 386.3 355.2 392.6 361.8 397.8 369.9 397.8 378 397.8 384.6 392.6 384.6 386.3 384.6 379.9 378 374.8 369.9 374.8zM169.8 407.9C161.7 407.9 155.1 413 155.1 419.4 155.1 425.7 161.7 430.8 169.8 430.8 177.9 430.8 184.4 425.7 184.4 419.4 184.4 413 177.9 407.9 169.8 407.9zM213.4 407.9C205.3 407.9 198.7 413 198.7 419.4 198.7 425.7 205.3 430.8 213.4 430.8 221.5 430.8 228 425.7 228 419.4 228 413 221.5 407.9 213.4 407.9zM257 407.9C248.9 407.9 242.3 413 242.3 419.4 242.3 425.7 248.9 430.8 257 430.8 265.1 430.8 271.7 425.7 271.7 419.4 271.7 413 265.1 407.9 257 407.9zM300.6 407.9C292.5 407.9 285.9 413 285.9 419.4 285.9 425.7 292.5 430.8 300.6 430.8 308.7 430.8 315.3 425.7 315.3 419.4 315.3 413 308.7 407.9 300.6 407.9zM344.2 407.9C336 407.9 329.5 413 329.5 419.4 329.5 425.7 336 430.8 344.2 430.8 352.3 430.8 358.8 425.7 358.8 419.4 358.8 413 352.3 407.9 344.2 407.9zM387.8 407.9C379.7 407.9 373.1 413 373.1 419.4 373.1 425.7 379.7 430.8 387.8 430.8 395.9 430.8 402.4 425.7 402.4 419.4 402.4 413 395.9 407.9 387.8 407.9zM188.5 441C181.9 441 176.7 446.1 176.7 452.4 176.7 458.7 181.9 463.8 188.5 463.8L333.3 463.8C339.9 463.8 345.1 458.7 345.1 452.4 345.1 446.1 339.9 441 333.3 441L188.5 441z" transform="translate(124.82366,237.97156)" fill="#892ca0"/></g></svg>